<?xml version="1.0" standalone="no"?>
<svg x="0" y="0" width="100%" height="100%" viewBox="-500 -500 2000 2000" xmlns="http://www.w3.org/2000/svg">
<!-- 大括号 -->
<path d="M460 340 Q440 340 440 370 V400 Q440 430 420 430 Q440 430 440 460 V500 Q440 520 460 520"
      fill="none" stroke="#FFD02F" stroke-width="20" stroke-linecap="round" stroke-linejoin="round"/>
<path d="M590 340 Q610 340 610 370 V400 Q610 430 630 430 Q610 430 610 460 V500 Q610 520 590 520" 
      fill="none" stroke="#FFD02F" stroke-width="20" stroke-linecap="round" stroke-linejoin="round"/>

<!-- <text x="400" y="510" font-family="Ubuntu" font-size="210" fill="#FFD02F">{</text>
<text x="580" y="510" font-family="Ubuntu" font-size="210" fill="#FFD02F">}</text> -->

<!-- 箭头 -->
<path d="M470 490 L575 367 M575 367 L530 370 M575 367 L580 410"
      fill="none" stroke="#000000" stroke-width="16" stroke-linecap="round" stroke-linejoin="round"/>

<!-- 文字 Only -->
<text x="190" y="720" font-family="Maple Mono" font-size="130" fill="#000000">Only</text>
<!-- 文字 JSON -->
<text x="550" y="720" font-family="Maple Mono" font-size="130" fill="#FFD02F">Json</text>
</svg>